<svg width="88" height="84" viewBox="0 0 88 84" fill="none" xmlns="http://www.w3.org/2000/svg">
<path d="M85.88 23.2821C84 22.2974 82.04 21.4769 80 20.7795V70.1333C75.44 68.4513 70.76 67.5897 66 67.5897C58.4 67.5897 50.88 69.8051 44 74.0718V24.4308C37.52 20.6154 30.04 18.359 22 18.359C14.84 18.359 8.08 20.1641 2.12 23.2821C0.8 23.9385 0 25.3744 0 26.8923V76.4513C0 78.8308 1.88 80.5128 4 80.5128C4.64 80.5128 5.28 80.3487 5.92 80.0205C10.76 77.4359 16.2 75.7949 22 75.7949C30.28 75.7949 37.92 79.159 44 84C50.08 79.159 57.72 75.7949 66 75.7949C71.8 75.7949 77.24 77.4359 82.08 80.0615C82.72 80.3898 83.36 80.5538 84 80.5538C86.08 80.5538 88 78.8718 88 76.4923V26.8923C88 25.3744 87.2 23.9385 85.88 23.2821ZM36 70.1333C31.44 68.4513 26.76 67.5897 22 67.5897C17.24 67.5897 12.56 68.4513 8 70.1333V29.4769C12.44 27.5487 17.12 26.5641 22 26.5641C26.8 26.5641 31.56 27.5897 36 29.5179V70.1333ZM72 4L52 24.5128V63.4872L72 45.0256V4Z" fill="#4F2EE8"/>
</svg>
