<?xml version="1.0" standalone="no"?>
<!DOCTYPE svg PUBLIC "-//W3C//DTD SVG 20010904//EN"
 "http://www.w3.org/TR/2001/REC-SVG-20010904/DTD/svg10.dtd">
<svg version="1.0" xmlns="http://www.w3.org/2000/svg"
 width="832.000000pt" height="832.000000pt" viewBox="0 0 832.000000 832.000000"
 preserveAspectRatio="xMidYMid meet">
<metadata>
Created by potrace 1.14, written by Peter Selinger 2001-2017
</metadata>
<g transform="translate(0.000000,832.000000) scale(0.100000,-0.100000)"
fill="#000000" stroke="none">
<path d="M220 8161 c0 -5 -11 -8 -25 -5 -14 2 -25 2 -25 -1 0 -4 356 -359 880
-875 l224 -222 1 -2891 0 -2892 2892 0 2891 -1 279 -282 c600 -608 801 -810
812 -816 8 -5 11 1052 11 3987 l0 3994 -55 -1 c-30 -1 -55 3 -55 7 0 6 -5 6
-12 0 -7 -5 -31 -8 -53 -6 -50 4 -46 4 -133 1 -39 -2 -72 1 -72 6 0 5 -6 4
-12 -1 -7 -5 -56 -7 -108 -6 -52 2 -99 3 -105 3 -5 0 -29 -1 -52 -3 -24 -2
-43 1 -43 6 0 4 -5 5 -12 1 -16 -10 -148 -11 -148 -1 0 5 -5 5 -12 1 -17 -11
-198 -11 -198 0 0 5 -6 4 -12 -1 -7 -5 -31 -8 -53 -6 -50 4 -46 4 -133 1 -39
-2 -72 1 -72 6 0 5 -6 4 -12 -1 -7 -5 -56 -7 -108 -6 -52 2 -99 3 -105 3 -5 0
-29 -1 -52 -3 -24 -2 -43 1 -43 6 0 4 -5 5 -12 1 -16 -10 -148 -11 -148 -1 0
5 -5 5 -12 1 -17 -11 -198 -11 -198 0 0 5 -6 4 -12 -1 -7 -5 -31 -8 -53 -6
-50 4 -46 4 -133 1 -39 -2 -72 1 -72 6 0 5 -6 4 -12 -1 -7 -5 -56 -7 -108 -6
-52 2 -99 3 -105 3 -5 0 -29 -1 -52 -3 -24 -2 -43 1 -43 6 0 4 -5 5 -12 1 -16
-10 -148 -11 -148 -1 0 5 -5 5 -12 1 -17 -11 -198 -11 -198 0 0 5 -6 4 -12 -1
-7 -5 -31 -8 -53 -6 -50 4 -46 4 -133 1 -39 -2 -72 1 -72 6 0 5 -6 4 -12 -1
-7 -5 -56 -7 -108 -6 -52 2 -99 3 -105 3 -5 0 -29 -1 -52 -3 -24 -2 -43 1 -43
6 0 4 -5 5 -12 1 -16 -10 -148 -11 -148 -1 0 5 -5 5 -12 1 -17 -11 -198 -11
-198 0 0 5 -6 4 -12 -1 -7 -5 -31 -8 -53 -6 -50 4 -46 4 -133 1 -39 -2 -72 1
-72 6 0 5 -6 4 -12 -1 -7 -5 -56 -7 -108 -6 -52 2 -99 3 -105 3 -5 0 -29 -1
-52 -3 -24 -2 -43 1 -43 6 0 4 -5 5 -12 1 -16 -10 -148 -11 -148 -1 0 5 -5 5
-12 1 -17 -11 -198 -11 -198 0 0 5 -6 4 -12 -1 -7 -5 -31 -8 -53 -6 -50 4 -46
4 -133 1 -39 -2 -72 1 -72 6 0 5 -6 4 -12 -1 -7 -5 -56 -7 -108 -6 -52 2 -99
3 -105 3 -5 0 -29 -1 -52 -3 -24 -2 -43 1 -43 6 0 4 -5 5 -12 1 -16 -10 -148
-11 -148 -1 0 5 -5 5 -12 1 -17 -11 -198 -11 -198 0 0 5 -6 4 -12 -1 -7 -5
-31 -8 -53 -6 -50 4 -46 4 -133 1 -39 -2 -72 1 -72 6 0 5 -6 4 -12 -1 -7 -5
-56 -7 -108 -6 -52 2 -99 3 -105 3 -5 0 -29 -1 -52 -3 -24 -2 -43 1 -43 6 0 4
-5 5 -12 1 -16 -10 -148 -11 -148 -1 0 5 -5 5 -12 1 -17 -11 -198 -11 -198 0
0 5 -6 4 -12 -1 -7 -5 -31 -8 -53 -6 -50 4 -46 4 -133 1 -39 -2 -72 1 -72 6 0
5 -6 4 -12 -1 -7 -5 -56 -7 -108 -6 -52 2 -99 3 -105 3 -5 0 -29 -1 -52 -3
-24 -2 -43 1 -43 6 0 4 -5 5 -12 1 -16 -10 -148 -11 -148 -1 0 5 -5 5 -12 1
-16 -10 -198 -11 -198 -1 0 5 -6 5 -12 0 -17 -10 -99 -11 -120 0 -11 4 -18 4
-18 -2z"/>
</g>
</svg>
